<svg width="576" height="576" viewBox="0 0 576 576" fill="none" xmlns="http://www.w3.org/2000/svg">
  <path d="M0 288C0 128.95 128.95 0 288 0C447.05 0 576 128.95 576 288C576 447.05 447.05 576 288 576C128.95 576 0 447.05 0 288Z" fill="white"/>
  <path d="M301.71 61.91C161.39 39.38 85.02 242.36 184.06 338.86C225.44 379.12 284.85 407.62 345.32 396.66C455.95 376.01 476.55 194.58 381.48 121.47C367.15 110.73 345.32 94.16 301.71 61.91Z" fill="#3756A9"/>
  <path d="M90.85 197.13C-23.13 312.86 69.36 506.21 214.3 512.76C290.46 516.16 365.83 468.64 385.1 390.11C420.91 245.71 261.22 172.17 182.41 177.54C150.97 179.41 119.48 184.41 90.85 197.13Z" fill="#3756A9"/>
</svg> 