<svg width="1150" height="288" viewBox="0 0 1150 288" fill="none" xmlns="http://www.w3.org/2000/svg">
  <path d="M199.3 0L0 174V288H39.6L199.3 108.1L353.6 288H394L199.3 0Z" fill="black"/>
  <path d="M37.4 0H0V136.1L37.4 97.6V0Z" fill="black"/>
  <path d="M394 0H354.5V127.7L394 174.8V0Z" fill="black"/>
  <path d="M497.9 82.1C533.2 82.1 557.9 101.8 557.9 144.1C557.9 186.3 533.2 206 497.9 206C462.6 206 438 186.3 438 144.1C438 101.8 462.6 82.1 497.9 82.1ZM497.9 46C439.7 46 401.2 84.5 401.2 144.1C401.2 203.7 439.7 242.1 497.9 242.1C556.1 242.1 594.6 203.7 594.6 144.1C594.6 84.5 556.1 46 497.9 46Z" fill="black"/>
  <path d="M658.2 50.9H622.1V237.2H658.2V151.4H718.2V115.3H658.2V50.9Z" fill="black"/>
  <path d="M806.7 82.1C842 82.1 866.7 101.8 866.7 144.1C866.7 186.3 842 206 806.7 206C771.4 206 746.8 186.3 746.8 144.1C746.8 101.8 771.4 82.1 806.7 82.1ZM806.7 46C748.5 46 710 84.5 710 144.1C710 203.7 748.5 242.1 806.7 242.1C864.9 242.1 903.4 203.7 903.4 144.1C903.4 84.5 864.9 46 806.7 46Z" fill="black"/>
  <path d="M956.2 50.9H920.1V237.2H956.2V152.6L1035.7 237.2H1084.2L990.8 140.8L1080.3 50.9H1031.9L956.2 128.1V50.9Z" fill="black"/>
  <path d="M1150 50.9H1090.4L1043.1 165.7L1102.7 237.2H1150L1090.4 165.7L1150 50.9Z" fill="black"/>
  <path d="M770.1 288H770.6L781.9 256.4H793.2L779.4 288H770.1Z" fill="black"/>
  <path d="M814.6 288H823.9L837.7 256.4H826.4L815.1 288H814.6Z" fill="black"/>
  <path d="M854 288H863V256.4H854V288Z" fill="black"/>
  <path d="M893.8 256.4H882.7V288H891.8V267.7L906.3 288H916.8L900.7 266.7L916.3 256.4H906.1L891.8 266.4V256.4H893.8Z" fill="black"/>
  <path d="M955.6 256.4V273.7C955.6 283.5 949.3 288.7 941.8 288.7C934.4 288.7 928.3 284 928.3 273.8V256.4H919.2V273.8C919.2 288.9 929.9 297.4 941.9 297.4C954 297.4 964.7 288.9 964.7 273.8V256.4H955.6Z" fill="black"/>
  <path d="M1004.9 256.4H995.8V288H1004.9V256.4Z" fill="black"/>
</svg> 